<svg width="24" height="24" viewBox="0 0 24 24" fill="none" xmlns="http://www.w3.org/2000/svg">
  <path d="M18.2105 20.1818H8.36842V7.45455H18.2105M18.2105 5.63636H8.36842C7.89382 5.63636 7.43866 5.82792 7.10307 6.1689C6.76748 6.50987 6.57895 6.97233 6.57895 7.45455V20.1818C6.57895 20.664 6.76748 21.1265 7.10307 21.4675C7.43866 21.8084 7.89382 22 8.36842 22H18.2105C18.6851 22 19.1403 21.8084 19.4759 21.4675C19.8115 21.1265 20 20.664 20 20.1818V7.45455C20 6.97233 19.8115 6.50987 19.4759 6.1689C19.1403 5.82792 18.6851 5.63636 18.2105 5.63636ZM15.5263 2H4.78947C4.31488 2 3.85972 2.19156 3.52412 2.53253C3.18853 2.87351 3 3.33597 3 3.81818V16.5455H4.78947V3.81818H15.5263V2Z" fill="currentColor"/>
</svg>
