<svg width="24" height="24" viewBox="0 0 24 24" fill="none" xmlns="http://www.w3.org/2000/svg">
  <path d="M19.7778 2C20.3671 2 20.9324 2.23413 21.3491 2.65087C21.7659 3.06762 22 3.63285 22 4.22222V19.7778C22 20.3671 21.7659 20.9324 21.3491 21.3491C20.9324 21.7659 20.3671 22 19.7778 22H4.22222C3.63285 22 3.06762 21.7659 2.65087 21.3491C2.23413 20.9324 2 20.3671 2 19.7778V4.22222C2 3.63285 2.23413 3.06762 2.65087 2.65087C3.06762 2.23413 3.63285 2 4.22222 2H19.7778ZM19.2222 19.2222V13.3333C19.2222 12.3727 18.8406 11.4513 18.1613 10.772C17.482 10.0927 16.5607 9.71111 15.6 9.71111C14.6556 9.71111 13.5556 10.2889 13.0222 11.1556V9.92222H9.92222V19.2222H13.0222V13.7444C13.0222 12.8889 13.7111 12.1889 14.5667 12.1889C14.9792 12.1889 15.3749 12.3528 15.6666 12.6445C15.9583 12.9362 16.1222 13.3319 16.1222 13.7444V19.2222H19.2222ZM6.31111 8.17778C6.80618 8.17778 7.28098 7.98111 7.63104 7.63104C7.98111 7.28098 8.17778 6.80618 8.17778 6.31111C8.17778 5.27778 7.34444 4.43333 6.31111 4.43333C5.81309 4.43333 5.33547 4.63117 4.98332 4.98332C4.63117 5.33547 4.43333 5.81309 4.43333 6.31111C4.43333 7.34444 5.27778 8.17778 6.31111 8.17778ZM7.85556 19.2222V9.92222H4.77778V19.2222H7.85556Z" fill="currentColor"/>
</svg>
