<svg width="24" height="24" viewBox="0 0 24 24" fill="none" xmlns="http://www.w3.org/2000/svg">
  <path d="M10.4745 13.5255C10.9181 13.9475 10.9181 14.6399 10.4745 15.0619C10.0525 15.4838 9.36008 15.4838 8.93812 15.0619C7.92476 14.047 7.35558 12.6714 7.35558 11.2372C7.35558 9.80305 7.92476 8.42748 8.93812 7.41259L12.7682 3.58254C13.7831 2.56917 15.1586 2 16.5928 2C18.027 2 19.4026 2.56917 20.4175 3.58254C21.4308 4.59742 22 5.97299 22 7.40718C22 8.84137 21.4308 10.2169 20.4175 11.2318L18.8054 12.8439C18.8162 11.9567 18.6755 11.0695 18.3726 10.2256L18.8811 9.7063C19.1847 9.40641 19.4257 9.04925 19.5902 8.65551C19.7547 8.26178 19.8394 7.83931 19.8394 7.41259C19.8394 6.98588 19.7547 6.5634 19.5902 6.16967C19.4257 5.77594 19.1847 5.41877 18.8811 5.11889C18.5812 4.81532 18.2241 4.5743 17.8303 4.4098C17.4366 4.2453 17.0141 4.16059 16.5874 4.16059C16.1607 4.16059 15.7382 4.2453 15.3445 4.4098C14.9508 4.5743 14.5936 4.81532 14.2937 5.11889L10.4745 8.93812C10.1709 9.23801 9.92988 9.59517 9.76538 9.98891C9.60088 10.3826 9.51618 10.8051 9.51618 11.2318C9.51618 11.6585 9.60088 12.081 9.76538 12.4747C9.92988 12.8685 10.1709 13.2256 10.4745 13.5255ZM13.5255 8.93812C13.9475 8.51617 14.6399 8.51617 15.0619 8.93812C16.0752 9.95301 16.6444 11.3286 16.6444 12.7628C16.6444 14.197 16.0752 15.5725 15.0619 16.5874L11.2318 20.4175C10.2169 21.4308 8.84137 22 7.40718 22C5.97299 22 4.59742 21.4308 3.58254 20.4175C2.56917 19.4026 2 18.027 2 16.5928C2 15.1586 2.56917 13.7831 3.58254 12.7682L5.19462 11.1561C5.1838 12.0433 5.32446 12.9305 5.6274 13.7852L5.11889 14.2937C4.81532 14.5936 4.5743 14.9508 4.4098 15.3445C4.2453 15.7382 4.16059 16.1607 4.16059 16.5874C4.16059 17.0141 4.2453 17.4366 4.4098 17.8303C4.5743 18.2241 4.81532 18.5812 5.11889 18.8811C5.41877 19.1847 5.77594 19.4257 6.16967 19.5902C6.5634 19.7547 6.98588 19.8394 7.41259 19.8394C7.83931 19.8394 8.26178 19.7547 8.65551 19.5902C9.04925 19.4257 9.40641 19.1847 9.7063 18.8811L13.5255 15.0619C13.8291 14.762 14.0701 14.4048 14.2346 14.0111C14.3991 13.6174 14.4838 13.1949 14.4838 12.7682C14.4838 12.3415 14.3991 11.919 14.2346 11.5253C14.0701 11.1315 13.8291 10.7744 13.5255 10.4745C13.4205 10.376 13.3367 10.257 13.2794 10.1249C13.2222 9.99277 13.1926 9.8503 13.1926 9.7063C13.1926 9.56229 13.2222 9.41982 13.2794 9.28769C13.3367 9.15556 13.4205 9.03659 13.5255 8.93812Z" fill="currentColor"/>
</svg>
