<svg width="85" height="13" viewBox="0 0 85 13" fill="currentColor" xmlns="http://www.w3.org/2000/svg">
<path d="M4.35205 12.24C7.12005 12.24 8.94397 10.752 8.94397 8.496C8.94397 6.848 7.95205 5.68 6.12805 5.184L4.78406 4.816C3.85606 4.56 3.552 4.272 3.552 3.696C3.552 2.944 4.192 2.416 5.104 2.416C5.936 2.416 6.68805 2.656 7.69604 3.264L8.75195 1.664C7.77595 0.960004 6.40004 0.544004 5.04004 0.544004C2.68804 0.544004 1.05603 1.952 1.05603 3.984C1.05603 4.608 1.21602 5.184 1.52002 5.68C1.92002 6.352 2.60804 6.784 3.71204 7.088L4.94397 7.424C5.93597 7.696 6.40002 8.144 6.40002 8.864C6.40002 9.856 5.728 10.384 4.448 10.384C3.328 10.384 2.43197 10.032 1.39197 9.488L0.560059 11.232C1.68006 11.872 3.08805 12.24 4.35205 12.24ZM13.056 12.192C13.616 12.192 14.176 12.08 14.8 11.824L14.528 10.544C14.144 10.656 13.952 10.704 13.76 10.704C13.024 10.704 12.832 10.432 12.832 9.392V5.28H14.208L14.752 3.808H12.832C12.832 2.976 12.88 2.08 12.96 1.328L10.7841 1.872C10.7041 2.48 10.704 3.008 10.704 3.808H9.88794V5.28H10.704V9.728C10.704 10.48 10.72 10.64 10.848 10.992C11.104 11.712 11.968 12.192 13.056 12.192ZM21.472 12.224L22.9919 11.36C22.6719 10.976 22.496 10.416 22.496 9.872V3.616L20.448 4.048V9.808C20.288 10.208 19.648 10.592 19.12 10.592C18.8 10.592 18.48 10.432 18.368 10.208C18.256 9.984 18.192 9.6 18.192 8.864V3.6L16.08 4V9.248C16.08 10.08 16.128 10.512 16.256 10.88C16.528 11.664 17.52 12.208 18.672 12.208C19.536 12.208 20.304 11.936 20.832 11.424C20.976 11.76 21.2 12.032 21.472 12.224ZM27.808 12.208C28.544 12.208 29.168 11.984 29.696 11.52C29.728 11.744 29.76 11.872 29.824 12H31.744C31.6063 11.6939 31.4539 11.0804 31.4409 9.26333L31.4399 0.496004L29.312 0.160004V2.976C29.312 3.456 29.344 4.016 29.376 4.192C28.976 3.872 28.512 3.728 27.92 3.728C25.84 3.728 24.416 5.488 24.416 8.048C24.416 10.592 25.728 12.208 27.808 12.208ZM28.288 10.4C27.168 10.4 26.8 9.824 26.8 8.064C26.8 6.24 27.216 5.44 28.176 5.44C28.56 5.44 28.944 5.616 29.344 5.968V9.872C29.136 10.128 28.688 10.4 28.288 10.4ZM34.912 2.88C35.648 2.88 36.24 2.288 36.24 1.552C36.24 0.816004 35.664 0.224004 34.944 0.224004C34.208 0.224004 33.6 0.816004 33.6 1.552C33.6 2.288 34.192 2.88 34.912 2.88ZM35.984 12V3.616L33.84 3.952V12H35.984ZM41.504 12.176C42.768 12.176 43.584 11.744 44.208 11.04C44.912 10.24 45.2321 9.28 45.2321 7.872C45.2321 6.544 44.944 5.648 44.288 4.88C43.584 4.048 42.672 3.648 41.504 3.648C39.296 3.648 37.824 5.36 37.824 7.936C37.824 10.512 39.28 12.176 41.504 12.176ZM41.568 10.624C41.152 10.624 40.672 10.4 40.48 9.952C40.304 9.536 40.208 8.832 40.208 7.888C40.208 7.072 40.288 6.496 40.432 6.064C40.608 5.552 41.024 5.232 41.536 5.232C41.92 5.232 42.256 5.392 42.464 5.664C42.752 6.032 42.896 6.752 42.896 7.856C42.896 9.792 42.496 10.624 41.568 10.624ZM52.576 12L52.96 6.192C53.008 5.504 53.04 4.848 53.04 4.192C53.152 4.832 53.344 5.616 53.488 6.16L55.072 12H56.976L58.736 5.92C58.928 5.248 59.024 4.848 59.152 4.208C59.152 4.8 59.1841 5.36 59.2321 6.064L59.6479 12H61.84L60.848 0.880004H58L56.496 6.4C56.32 7.056 56.1919 7.632 56.0959 8.208C55.9999 7.632 55.92 7.248 55.712 6.448L54.256 0.880004H51.392L50.3521 12H52.576ZM67.312 12.224C68.464 12.224 69.456 11.856 70.4 11.088L69.568 9.808C68.912 10.352 68.224 10.624 67.488 10.624C66.384 10.624 65.76 9.904 65.76 8.64V8.576H70.496V8.08C70.496 6.368 70.16 5.264 69.408 4.496C68.88 3.952 67.984 3.632 67.04 3.632C65.952 3.632 65.136 3.984 64.464 4.736C63.744 5.536 63.4399 6.512 63.4399 7.984C63.4399 10.56 64.96 12.224 67.312 12.224ZM68.272 7.008H65.792V6.976C65.792 5.84 66.256 5.2 67.072 5.2C67.504 5.2 67.808 5.36 68.016 5.68C68.208 5.984 68.272 6.304 68.272 6.912V7.008ZM74.528 12.192C75.088 12.192 75.648 12.08 76.272 11.824L76 10.544C75.616 10.656 75.4241 10.704 75.2321 10.704C74.4961 10.704 74.304 10.432 74.304 9.392V5.28H75.6801L76.224 3.808H74.304C74.304 2.976 74.352 2.08 74.432 1.328L72.256 1.872C72.176 2.48 72.176 3.008 72.176 3.808H71.36V5.28H72.176V9.728C72.176 10.48 72.1919 10.64 72.3199 10.992C72.5759 11.712 73.44 12.192 74.528 12.192ZM83.12 12.416L84.256 11.104C83.536 10.56 83.472 10.176 83.488 9.28L83.536 6.528C83.552 5.648 83.504 5.392 83.392 5.056C83.072 4.144 82.128 3.632 80.752 3.632C80 3.632 79.312 3.776 78.512 4.112C77.936 4.352 77.616 4.512 77.184 4.784L78.0959 6.32C78.9759 5.728 79.776 5.392 80.464 5.392C81.248 5.392 81.424 5.696 81.424 6.608V6.944C81.2479 6.928 81.104 6.928 80.944 6.928C78.336 6.928 77.0081 7.824 77.0081 9.744C77.0081 11.376 78 12.304 79.824 12.304C80.496 12.304 81.072 12.144 81.472 11.856C81.632 11.744 81.808 11.584 81.968 11.424C82.176 11.84 82.624 12.208 83.12 12.416ZM80.24 10.736C79.696 10.736 79.296 10.304 79.296 9.664C79.296 8.688 79.808 8.416 81.296 8.416H81.392L81.36 10.176C81.04 10.528 80.64 10.736 80.24 10.736Z" />
</svg>
