<svg width="24" height="24" viewBox="0 0 24 24" fill="none" xmlns="http://www.w3.org/2000/svg">
  <path d="M17.2806 5.13333C16.4959 4.26625 16.0634 3.1527 16.0638 2H12.5166V15.7778C12.4892 16.5234 12.164 17.2296 11.6094 17.7477C11.0548 18.2658 10.3142 18.5555 9.54337 18.5556C7.91326 18.5556 6.55867 17.2667 6.55867 15.6667C6.55867 13.7556 8.46429 12.3222 10.4273 12.9111V9.4C6.46684 8.88889 3 11.8667 3 15.6667C3 19.3667 6.16837 22 9.53189 22C13.1365 22 16.0638 19.1667 16.0638 15.6667V8.67778C17.5022 9.67761 19.2291 10.2141 21 10.2111V6.77778C21 6.77778 18.8418 6.87778 17.2806 5.13333Z" fill="currentColor"/>
</svg>
