<svg width="20" height="16" viewBox="0 0 20 16" fill="none" xmlns="http://www.w3.org/2000/svg">
<path fill-rule="evenodd" clip-rule="evenodd" d="M6.29 16C13.838 16 17.965 9.84499 17.965 4.50699C17.9647 4.33325 17.9607 4.15955 17.953 3.98599C18.754 3.41551 19.4471 2.70715 20 1.89399C19.2502 2.22076 18.4563 2.43507 17.644 2.52999C18.4971 2.02919 19.1385 1.2346 19.448 0.294986C18.6411 0.766125 17.7604 1.09746 16.843 1.27499C16.4561 0.870537 15.991 0.548958 15.476 0.329779C14.9609 0.110601 14.4067 -0.0016013 13.847 -1.39068e-05C11.581 -1.39068e-05 9.744 1.80899 9.744 4.03899C9.744 4.35599 9.78 4.66399 9.85 4.95899C8.22441 4.88208 6.6327 4.46718 5.17642 3.74076C3.72013 3.01434 2.43125 1.99235 1.392 0.739986C1.02763 1.3544 0.835565 2.05565 0.836 2.76999C0.836 4.17199 1.561 5.40899 2.662 6.13299C2.01151 6.11354 1.37484 5.94049 0.804 5.62799V5.67999C0.804 7.63599 2.217 9.26799 4.095 9.63899C3.49044 9.80127 2.85708 9.82519 2.242 9.70899C2.51079 10.5167 3.02433 11.2207 3.71136 11.7233C4.39838 12.226 5.22482 12.5023 6.076 12.514C4.61511 13.6381 2.82229 14.2452 0.979 14.24C0.649 14.24 0.321 14.222 0 14.184C1.88226 15.3731 4.06362 16.0028 6.29 16" fill="currentColor"/>
</svg>
